<?xml version="1.0" encoding="UTF-8"?>
<svg width="20px" height="24px" viewBox="0 0 20 24" version="1.1" xmlns="http://www.w3.org/2000/svg" xmlns:xlink="http://www.w3.org/1999/xlink">
    <!-- Generator: Sketch 48.2 (47327) - http://www.bohemiancoding.com/sketch -->
    <title>Group 9</title>
    <desc>Created with Sketch.</desc>
    <defs></defs>
    <g id="Desktop-HD" stroke="none" stroke-width="1" fill="none" fill-rule="evenodd" transform="translate(-1140.000000, -118.000000)">
        <g id="Group-12" transform="translate(584.000000, 16.000000)">
            <g id="Group-9" transform="translate(556.000000, 102.000000)">
                <path d="M19.5,0.666960032 C19.1050507,0.857271194 18.5234918,1.18801801 17.7620487,1.65659839 L17.5338042,1.79705658 L15,0.627608502 L12.5,1.78145466 L10,0.627608502 L7.5,1.78145466 L5,0.627608502 L2.46619584,1.79705658 L2.23795129,1.65659839 C1.47650817,1.18801801 0.894949333,0.857271194 0.5,0.666960032 C0.5,5.15223157 0.5,5.41826409 0.5,12 C0.5,18.5817359 0.5,18.8477684 0.5,23.33304 C0.894949333,23.1427288 1.47650817,22.811982 2.23795129,22.3434016 L2.46619584,22.2029434 L5,23.3723915 L7.5,22.2185453 L10,23.3723915 L12.5,22.2185453 L15,23.3723915 L17.5338042,22.2029434 L17.7620487,22.3434016 C18.5234918,22.811982 19.1050507,23.1427288 19.5,23.33304 C19.5,18.8477684 19.5,18.5817359 19.5,12 C19.5,5.41826409 19.5,5.15223157 19.5,0.666960032 Z M0.0885450177,23.4998761 C0.0857386444,23.5002077 0.0829634374,23.5005846 0.0802214079,23.5010065 C0.0881346839,23.499789 0.0980918857,23.4975645 0.109988428,23.4943336 Z" id="Combined-Shape" stroke="#545557"></path>
                <rect id="Rectangle-6" fill="#545557" x="2.72727273" y="5.25" width="10.9090909" height="1" rx="0.5"></rect>
                <rect id="Rectangle-6-Copy" fill="#545557" x="2.72727273" y="8.25" width="8.18181818" height="1" rx="0.5"></rect>
                <rect id="Rectangle-6-Copy-2" fill="#545557" x="2.72727273" y="11.25" width="8.18181818" height="1" rx="0.5"></rect>
                <rect id="Rectangle-6-Copy-3" fill="#545557" x="2.72727273" y="14.25" width="7.27272727" height="1" rx="0.5"></rect>
            </g>
        </g>
    </g>
</svg>