<?xml version="1.0" encoding="UTF-8"?>
<svg width="40px" height="40px" viewBox="0 0 40 40" version="1.1" xmlns="http://www.w3.org/2000/svg" xmlns:xlink="http://www.w3.org/1999/xlink">
    <!-- Generator: Sketch 48.2 (47327) - http://www.bohemiancoding.com/sketch -->
    <title>Group 2</title>
    <desc>Created with Sketch.</desc>
    <defs>
        <circle id="path-1" cx="20" cy="20" r="20"></circle>
    </defs>
    <g id="Desktop-HD" stroke="none" stroke-width="1" fill="none" fill-rule="evenodd" transform="translate(-600.000000, -32.000000)">
        <g id="Group-12" transform="translate(584.000000, 16.000000)">
            <g id="Group-3">
                <g id="Group-2" transform="translate(16.000000, 16.000000)">
                    <mask id="mask-2" fill="white">
                        <use xlink:href="#path-1"></use>
                    </mask>
                    <use id="Mask" fill="#EFEFEF" xlink:href="#path-1"></use>
                    <path d="M20,28 C15.581722,28 12,24.418278 12,20 C12,15.581722 15.581722,12 20,12 C24.418278,12 28,15.581722 28,20 C28,24.418278 24.418278,28 20,28 Z M20,69 C11.7157288,69 5,60.045695 5,49 C5,37.954305 11.7157288,29 20,29 C28.2842712,29 35,37.954305 35,49 C35,60.045695 28.2842712,69 20,69 Z" id="Combined-Shape" fill="#D8D8D8" mask="url(#mask-2)"></path>
                </g>
            </g>
        </g>
    </g>
</svg>