<?xml version="1.0" encoding="UTF-8"?>
<svg width="16px" height="16px" viewBox="0 0 16 16" version="1.1" xmlns="http://www.w3.org/2000/svg" xmlns:xlink="http://www.w3.org/1999/xlink">
    <!-- Generator: Sketch 48.2 (47327) - http://www.bohemiancoding.com/sketch -->
    <title>Artboard</title>
    <desc>Created with Sketch.</desc>
    <defs>
        <path d="M8.23223305,-0.267766953 L8.23223305,-0.267766953 C8.7845178,-0.267766953 9.23223305,0.179948297 9.23223305,0.732233047 L9.23223305,3.23223305 L9.23223305,5.73223305 C9.23223305,6.2845178 8.7845178,6.73223305 8.23223305,6.73223305 L8.23223305,6.73223305 C7.6799483,6.73223305 7.23223305,6.2845178 7.23223305,5.73223305 L7.23223305,0.732233047 C7.23223305,0.179948297 7.6799483,-0.267766953 8.23223305,-0.267766953 Z" id="path-1"></path>
        <path d="M8.23223305,3.26776695 L8.23223305,3.26776695 C8.7845178,3.26776695 9.23223305,3.7154822 9.23223305,4.26776695 L9.23223305,6.76776695 L9.23223305,9.26776695 C9.23223305,9.8200517 8.7845178,10.267767 8.23223305,10.267767 L8.23223305,10.267767 C7.6799483,10.267767 7.23223305,9.8200517 7.23223305,9.26776695 L7.23223305,4.26776695 C7.23223305,3.7154822 7.6799483,3.26776695 8.23223305,3.26776695 Z" id="path-2"></path>
        <rect id="path-3" x="4.5" y="-0.5" width="2" height="11" rx="1"></rect>
    </defs>
    <g id="Page-1" stroke="none" stroke-width="1" fill="none" fill-rule="evenodd">
        <g id="Artboard">
            <g id="Group-6-Copy-3" transform="translate(2.000000, 3.000000)">
                <g id="Group-5">
                    <g id="Rectangle-3" transform="translate(8.232233, 3.232233) rotate(-45.000000) translate(-8.232233, -3.232233) ">
                        <use fill="#D8D8D8" fill-rule="evenodd" xlink:href="#path-1"></use>
                        <path stroke="#979797" stroke-width="1" d="M8.23223305,0.232233047 C7.95609067,0.232233047 7.73223305,0.456090672 7.73223305,0.732233047 L7.73223305,5.73223305 C7.73223305,6.00837542 7.95609067,6.23223305 8.23223305,6.23223305 C8.50837542,6.23223305 8.73223305,6.00837542 8.73223305,5.73223305 L8.73223305,0.732233047 C8.73223305,0.456090672 8.50837542,0.232233047 8.23223305,0.232233047 Z"></path>
                    </g>
                    <g id="Rectangle-3" transform="translate(8.232233, 6.767767) rotate(-315.000000) translate(-8.232233, -6.767767) ">
                        <use fill="#D8D8D8" fill-rule="evenodd" xlink:href="#path-2"></use>
                        <path stroke="#979797" stroke-width="1" d="M8.23223305,3.76776695 C7.95609067,3.76776695 7.73223305,3.99162458 7.73223305,4.26776695 L7.73223305,9.26776695 C7.73223305,9.54390933 7.95609067,9.76776695 8.23223305,9.76776695 C8.50837542,9.76776695 8.73223305,9.54390933 8.73223305,9.26776695 L8.73223305,4.26776695 C8.73223305,3.99162458 8.50837542,3.76776695 8.23223305,3.76776695 Z"></path>
                    </g>
                    <g id="Rectangle-3" transform="translate(5.500000, 5.000000) rotate(90.000000) translate(-5.500000, -5.000000) ">
                        <use fill="#D8D8D8" fill-rule="evenodd" xlink:href="#path-3"></use>
                        <rect stroke="#979797" stroke-width="1" x="5" y="0" width="1" height="10" rx="0.5"></rect>
                    </g>
                </g>
            </g>
        </g>
    </g>
</svg>